Coordinates
version=1
nRows=7
nColumns=40
inDegrees=yes

Units are S.I. units (second, meters, Newtons, ...)
Angles are in degrees.

endheader
time	pelvis_tilt	pelvis_list	pelvis_rotation	pelvis_tx	pelvis_ty	pelvis_tz	hip_flexion_r	hip_adduction_r	hip_rotation_r	knee_angle_r	knee_angle_r_beta	ankle_angle_r	subtalar_angle_r	mtp_angle_r	hip_flexion_l	hip_adduction_l	hip_rotation_l	knee_angle_l	knee_angle_l_beta	ankle_angle_l	subtalar_angle_l	mtp_angle_l	lumbar_extension	lumbar_bending	lumbar_rotation	arm_flex_r	arm_add_r	arm_rot_r	elbow_flex_r	pro_sup_r	wrist_flex_r	wrist_dev_r	arm_flex_l	arm_add_l	arm_rot_l	elbow_flex_l	pro_sup_l	wrist_flex_l	wrist_dev_l
      1.87000000	      0.69792665	      2.09106398	     -0.35243559	      0.53869381	      0.95985130	      1.53245192	     -4.03522066	     -1.84666590	    -21.33290243	    -14.41296923	     -0.25155377	      9.40521282	      1.76373679	    -12.86523492	     20.28537096	      4.16022030	     27.44000393	    -11.50364895	     -0.20077655	      0.26818781	      4.09007254	     10.06005794	     -7.54051461	     -2.53778027	      5.56632017	     13.74284344	    -12.25108002	    -14.60119829	     25.83863573	     89.95437384	      0.00000000	      0.00000000	     -7.82320958	     11.79105853	      7.99404134	      9.63073375	     89.95437384	      0.00000000	      0.00000000
      1.88000000	      0.57777608	      1.95539926	     -0.35136656	      0.54608589	      0.95874131	      1.53185287	     -4.39932931	     -1.72359646	    -21.34118381	    -14.45079994	     -0.25221404	      9.69807466	      1.82454883	    -12.95893198	     20.69021781	      4.20118757	     27.15707026	    -10.66371400	     -0.18611692	     -0.22663820	      3.37866374	      9.93595518	     -7.32199909	     -2.46173114	      5.69588846	     13.77735644	    -12.16931471	    -14.59529592	     26.18219949	     89.95437384	      0.00000000	      0.00000000	     -8.06992498	     11.92977784	      8.02206773	      9.49272894	     89.95437384	      0.00000000	      0.00000000
      1.89000000	      0.55947521	      1.88139481	     -0.32882294	      0.55342015	      0.95780725	      1.53098323	     -4.86302583	     -1.70578672	    -21.43431775	    -14.51369992	     -0.25331185	      9.91401807	      1.86416105	    -13.05312764	     20.94561126	      4.15800005	     26.89004941	     -9.91048632	     -0.17297062	     -0.82934625	      2.79132717	      9.81238533	     -7.25205655	     -2.42787751	      5.79104352	     13.80710050	    -12.07243035	    -14.65423843	     26.57567306	     89.95437384	      0.00000000	      0.00000000	     -8.20905929	     12.06329834	      8.02872079	      9.32866791	     89.95437384	      0.00000000	      0.00000000
      1.90000000	      0.79466355	      2.01559503	     -0.33205678	      0.56132197	      0.95728792	      1.52990418	     -5.64768877	     -2.06032569	    -22.10017101	    -14.59338983	     -0.25470270	     10.14616344	      2.95236933	    -13.91483869	     20.79396003	      3.88016955	     26.85495932	     -9.14251709	     -0.15956703	     -1.73261973	      2.36726280	      8.25047802	     -7.41529771	     -2.62734061	      5.84645590	     13.80474573	    -11.90003856	    -14.82757435	     26.95829956	     89.95437384	      0.00000000	      0.00000000	     -8.41560025	     12.22173946	      7.86146950	      9.27308434	     89.95437384	      0.00000000	      0.00000000
      1.91000000	      0.68168576	      1.91338516	     -0.39641425	      0.56897124	      0.95612978	      1.52903622	     -6.01287075	     -2.03052655	    -22.19388181	    -14.69208338	     -0.25642523	     10.26653164	      2.83619174	    -13.84891460	     21.21234024	      3.97289817	     26.68673330	     -8.99890283	     -0.15706048	     -1.75268340	      2.29403059	      8.14748595	     -7.18419841	     -2.58502797	      6.02741775	     13.77685473	    -11.79487771	    -14.81061539	     27.16140677	     89.95437384	      0.00000000	      0.00000000	     -8.61895445	     12.35622582	      7.86589825	      9.23798537	     89.95437384	      0.00000000	      0.00000000
      1.92000000	      0.58582964	      1.85998062	     -0.46924726	      0.57649492	      0.95500234	      1.52821600	     -6.30624026	     -2.08548759	    -22.11116497	    -14.95470786	     -0.26100889	     10.21628324	      2.73905502	    -13.68927341	     21.64358564	      4.05996510	     26.41752420	     -9.11904165	     -0.15915730	     -1.75825643	      2.26065384	      8.03187503	     -7.01708588	     -2.61715498	      6.12439288	     13.76507386	    -11.63763804	    -14.75136046	     27.44826100	     89.95437384	      0.00000000	      0.00000000	     -8.89438351	     12.51567470	      7.85856003	      9.32742143	     89.95437384	      0.00000000	      0.00000000
      1.93000000	      0.69695873	      1.75965797	     -0.29578573	      0.58476540	      0.95428822	      1.52657272	     -7.22784400	     -1.99948999	    -22.41799656	    -14.52997939	     -0.25359598	     10.64207623	      2.98707042	    -13.83789511	     21.63503210	      3.96350335	     25.85847439	     -8.95409576	     -0.15627845	     -1.79972312	      2.21668062	      7.83181656	     -7.01369381	     -2.52123380	      6.17610478	     13.46860542	    -11.51687764	    -15.11364549	     27.90884139	     89.95437384	      0.00000000	      0.00000000	     -8.80942697	     12.57187164	      7.92491895	      8.94296015	     89.95437384	      0.00000000	      0.00000000
